# xmcd
#
# Track frame offsets: 
#        180
#        16407
#        29474
#        42096
#        56086
#        68753
#        81842
#        93263
#        107507
#        120513
#        134360
#        147746
#        160723
#        173347
#        186487
#        199154
#        212280
#        224052
#        236745
#        248646
#        260910
#        272994
#        283826
#        296966
#
# Disc length: 4126 seconds
#
# Revision: 0
# Processed by: cddbd v1.5.2PL0 Copyright (c) Steve Scherf et al.
# Submitted via: ExactAudioCopy v0.95b4
#
DISCID=75101c18
DTITLE=Various Artist - Blues Generations Vol. 2 [CD 2]
DYEAR=2006
DGENRE=Blues
TTITLE0=Bessie Smith - Beale Street Mama
TTITLE1=Big Bill Bronzy - Bull Cow Blues
TTITLE2=Memphis Minnie - Moonshine
TTITLE3=Alice Moore - I'm Going Fishing Too
TTITLE4=Sonny Boy Williamson - Early In The Morning
TTITLE5=Sonny Terry - Blowing The Blues
TTITLE6=Sonny Terry - Harmonica And Washboard Break Down
TTITLE7=Memphis Slim - Grinder Man Blues
TTITLE8=Leadbelly - Good Morning Blues
TTITLE9=Leadbelly - Alabama Bound
TTITLE10=Big Joe Williams - Meet Me Around The Corner
TTITLE11=Big Joe Turner - Howlin' Winds
TTITLE12=Lightnin' Hopkins - I Can't Stay Here In Your Town
TTITLE13=John Lee Williamson - Hoo Doo Hoodoo
TTITLE14=Arthur Lightnin' Hopkins - Picture On The Wall
TTITLE15=Big Boy Crudup - Hey, Mama Everything's All Right
TTITLE16=Muddy Waters - You Gonna Miss Me
TTITLE17=T-Bone Walker - Don't Leave Me Baby
TTITLE18=John Lee Williamson - Boogie Awhile
TTITLE19=T-Bone Walker - No Worry Blues
TTITLE20=John Lee Hooker - Find Me A Woman
TTITLE21=Sonny Terry And Brownie Mc Ghee - Baby Let's Have Some Fun
TTITLE22=John Lee Hooker - I Want To Hug You
TTITLE23=Muddy Waters - I Just Want To Make Love To You
EXTD=
EXTT0=
EXTT1=
EXTT2=
EXTT3=
EXTT4=
EXTT5=
EXTT6=
EXTT7=
EXTT8=
EXTT9=
EXTT10=
EXTT11=
EXTT12=
EXTT13=
EXTT14=
EXTT15=
EXTT16=
EXTT17=
EXTT18=
EXTT19=
EXTT20=
EXTT21=
EXTT22=
EXTT23=
PLAYORDER=
